<mxfile host="app.diagrams.net" agent="Mozilla/5.0 (X11; Ubuntu; Linux x86_64; rv:136.0) Gecko/20100101 Firefox/136.0" version="26.1.3">
  <diagram name="第 1 页" id="LDG3XoUudgGpSO2i21jB">
    <mxGraphModel dx="1310" dy="451" grid="0" gridSize="10" guides="1" tooltips="1" connect="1" arrows="1" fold="1" page="0" pageScale="1" pageWidth="827" pageHeight="1169" math="0" shadow="0">
      <root>
        <mxCell id="0" />
        <mxCell id="1" parent="0" />
        <mxCell id="pu1SwIW-rt_Zj8emx26i-7" value="" style="rounded=0;whiteSpace=wrap;html=1;fillColor=#66CC00;" parent="1" vertex="1">
          <mxGeometry x="-116" y="31" width="546" height="549" as="geometry" />
        </mxCell>
        <mxCell id="pu1SwIW-rt_Zj8emx26i-1" value="" style="rounded=0;whiteSpace=wrap;html=1;fillColor=#3399FF;" parent="1" vertex="1">
          <mxGeometry x="-92.5" y="149" width="141" height="102" as="geometry" />
        </mxCell>
        <mxCell id="pu1SwIW-rt_Zj8emx26i-9" value="&lt;div&gt;NVS&lt;/div&gt;" style="rounded=0;whiteSpace=wrap;html=1;fillColor=#B3B3B3;" parent="1" vertex="1">
          <mxGeometry x="-78.5" y="176" width="114" height="25" as="geometry" />
        </mxCell>
        <mxCell id="pu1SwIW-rt_Zj8emx26i-10" value="WIFI_CONNECT" style="rounded=0;whiteSpace=wrap;html=1;fillColor=#67AB9F;" parent="1" vertex="1">
          <mxGeometry x="-78.5" y="212" width="114" height="25" as="geometry" />
        </mxCell>
        <mxCell id="pu1SwIW-rt_Zj8emx26i-13" value="WIFI" style="text;html=1;align=center;verticalAlign=middle;whiteSpace=wrap;rounded=0;" parent="1" vertex="1">
          <mxGeometry x="-92.5" y="149" width="60" height="30" as="geometry" />
        </mxCell>
        <mxCell id="pu1SwIW-rt_Zj8emx26i-14" value="" style="rounded=0;whiteSpace=wrap;html=1;fillColor=#3399FF;" parent="1" vertex="1">
          <mxGeometry x="79.5" y="149" width="141" height="102" as="geometry" />
        </mxCell>
        <mxCell id="pu1SwIW-rt_Zj8emx26i-15" value="HTTP" style="rounded=0;whiteSpace=wrap;html=1;fillColor=#97D077;" parent="1" vertex="1">
          <mxGeometry x="93.5" y="176" width="114" height="25" as="geometry" />
        </mxCell>
        <mxCell id="pu1SwIW-rt_Zj8emx26i-16" value="MQTT" style="rounded=0;whiteSpace=wrap;html=1;fillColor=#97D077;" parent="1" vertex="1">
          <mxGeometry x="93.5" y="212" width="114" height="25" as="geometry" />
        </mxCell>
        <mxCell id="pu1SwIW-rt_Zj8emx26i-17" value="通信模块" style="text;html=1;align=center;verticalAlign=middle;whiteSpace=wrap;rounded=0;" parent="1" vertex="1">
          <mxGeometry x="79.5" y="149" width="60" height="30" as="geometry" />
        </mxCell>
        <mxCell id="pu1SwIW-rt_Zj8emx26i-18" value="" style="rounded=0;whiteSpace=wrap;html=1;fillColor=#FF3333;" parent="1" vertex="1">
          <mxGeometry x="264" y="149" width="141" height="102" as="geometry" />
        </mxCell>
        <mxCell id="pu1SwIW-rt_Zj8emx26i-19" value="LOCAL_HEART" style="rounded=0;whiteSpace=wrap;html=1;fillColor=#FF9933;" parent="1" vertex="1">
          <mxGeometry x="278" y="176" width="114" height="25" as="geometry" />
        </mxCell>
        <mxCell id="pu1SwIW-rt_Zj8emx26i-20" value="REMOTE_HEART" style="rounded=0;whiteSpace=wrap;html=1;fillColor=#FF9933;" parent="1" vertex="1">
          <mxGeometry x="278" y="212" width="114" height="25" as="geometry" />
        </mxCell>
        <mxCell id="pu1SwIW-rt_Zj8emx26i-21" value="心跳模块" style="text;html=1;align=center;verticalAlign=middle;whiteSpace=wrap;rounded=0;" parent="1" vertex="1">
          <mxGeometry x="264" y="149" width="60" height="30" as="geometry" />
        </mxCell>
        <mxCell id="pu1SwIW-rt_Zj8emx26i-23" value="" style="rounded=0;whiteSpace=wrap;html=1;fillColor=#999999;" parent="1" vertex="1">
          <mxGeometry x="79" y="325" width="141" height="137" as="geometry" />
        </mxCell>
        <mxCell id="pu1SwIW-rt_Zj8emx26i-24" value="LED_STRIP" style="rounded=0;whiteSpace=wrap;html=1;fillColor=#666666;" parent="1" vertex="1">
          <mxGeometry x="93" y="352" width="114" height="25" as="geometry" />
        </mxCell>
        <mxCell id="pu1SwIW-rt_Zj8emx26i-25" value="OLED " style="rounded=0;whiteSpace=wrap;html=1;fillColor=#666666;" parent="1" vertex="1">
          <mxGeometry x="93" y="388" width="114" height="25" as="geometry" />
        </mxCell>
        <mxCell id="pu1SwIW-rt_Zj8emx26i-26" value="控制模块" style="text;html=1;align=center;verticalAlign=middle;whiteSpace=wrap;rounded=0;" parent="1" vertex="1">
          <mxGeometry x="79" y="325" width="60" height="30" as="geometry" />
        </mxCell>
        <mxCell id="pu1SwIW-rt_Zj8emx26i-27" value="SW" style="rounded=0;whiteSpace=wrap;html=1;fillColor=#666666;" parent="1" vertex="1">
          <mxGeometry x="93" y="424" width="114" height="25" as="geometry" />
        </mxCell>
        <mxCell id="pu1SwIW-rt_Zj8emx26i-30" value="" style="rounded=0;whiteSpace=wrap;html=1;fillColor=#999999;" parent="1" vertex="1">
          <mxGeometry x="264" y="325" width="141" height="102" as="geometry" />
        </mxCell>
        <mxCell id="pu1SwIW-rt_Zj8emx26i-31" value="PARSING" style="rounded=0;whiteSpace=wrap;html=1;fillColor=#666666;" parent="1" vertex="1">
          <mxGeometry x="278" y="352" width="114" height="25" as="geometry" />
        </mxCell>
        <mxCell id="pu1SwIW-rt_Zj8emx26i-32" value="EXECUTION" style="rounded=0;whiteSpace=wrap;html=1;fillColor=#666666;" parent="1" vertex="1">
          <mxGeometry x="278" y="388" width="114" height="25" as="geometry" />
        </mxCell>
        <mxCell id="pu1SwIW-rt_Zj8emx26i-33" value="命令模块" style="text;html=1;align=center;verticalAlign=middle;whiteSpace=wrap;rounded=0;" parent="1" vertex="1">
          <mxGeometry x="264" y="325" width="60" height="30" as="geometry" />
        </mxCell>
        <mxCell id="pu1SwIW-rt_Zj8emx26i-34" value="" style="rounded=0;whiteSpace=wrap;html=1;fillColor=#FF3333;" parent="1" vertex="1">
          <mxGeometry x="-92.5" y="325" width="141" height="174" as="geometry" />
        </mxCell>
        <mxCell id="pu1SwIW-rt_Zj8emx26i-35" value="SPEAKE" style="rounded=0;whiteSpace=wrap;html=1;fillColor=#FF9933;" parent="1" vertex="1">
          <mxGeometry x="-78.5" y="352" width="114" height="25" as="geometry" />
        </mxCell>
        <mxCell id="pu1SwIW-rt_Zj8emx26i-36" value="MIC" style="rounded=0;whiteSpace=wrap;html=1;fillColor=#FF9933;" parent="1" vertex="1">
          <mxGeometry x="-78.5" y="388" width="114" height="25" as="geometry" />
        </mxCell>
        <mxCell id="pu1SwIW-rt_Zj8emx26i-37" value="唤醒模块" style="text;html=1;align=center;verticalAlign=middle;whiteSpace=wrap;rounded=0;" parent="1" vertex="1">
          <mxGeometry x="-92.5" y="325" width="60" height="30" as="geometry" />
        </mxCell>
        <mxCell id="pu1SwIW-rt_Zj8emx26i-38" value="WAKEUP" style="rounded=0;whiteSpace=wrap;html=1;fillColor=#FF9933;" parent="1" vertex="1">
          <mxGeometry x="-78.5" y="424" width="114" height="25" as="geometry" />
        </mxCell>
        <mxCell id="pu1SwIW-rt_Zj8emx26i-39" value="RECOGNITION" style="rounded=0;whiteSpace=wrap;html=1;fillColor=#FF9933;" parent="1" vertex="1">
          <mxGeometry x="-79" y="461" width="114" height="25" as="geometry" />
        </mxCell>
        <mxCell id="pu1SwIW-rt_Zj8emx26i-45" value="" style="endArrow=classic;startArrow=classic;html=1;rounded=0;fontSize=12;startSize=8;endSize=8;curved=1;exitX=0;exitY=0.5;exitDx=0;exitDy=0;" parent="1" edge="1">
          <mxGeometry width="50" height="50" relative="1" as="geometry">
            <mxPoint x="430" y="291" as="sourcePoint" />
            <mxPoint x="-118" y="291" as="targetPoint" />
          </mxGeometry>
        </mxCell>
        <mxCell id="uhwBhXOCUcggwkr8SRzK-1" value="网络层" style="text;html=1;align=center;verticalAlign=middle;resizable=0;points=[];autosize=1;strokeColor=none;fillColor=none;" vertex="1" parent="1">
          <mxGeometry x="119" y="260" width="54" height="26" as="geometry" />
        </mxCell>
        <mxCell id="uhwBhXOCUcggwkr8SRzK-2" value="本地层" style="text;html=1;align=center;verticalAlign=middle;resizable=0;points=[];autosize=1;strokeColor=none;fillColor=none;" vertex="1" parent="1">
          <mxGeometry x="119" y="296" width="54" height="26" as="geometry" />
        </mxCell>
      </root>
    </mxGraphModel>
  </diagram>
</mxfile>
